<?xml version="1.0" encoding="UTF-8"?>
<!DOCTYPE svg PUBLIC "-//W3C//DTD SVG 1.1//EN" "http://www.w3.org/Graphics/SVG/1.1/DTD/svg11.dtd">
<!-- Creator: CorelDRAW 2019 (64-Bit) -->
<svg xmlns="http://www.w3.org/2000/svg" xml:space="preserve" width="801px" height="191px" version="1.1" style="shape-rendering:geometricPrecision; text-rendering:geometricPrecision; image-rendering:optimizeQuality; fill-rule:evenodd; clip-rule:evenodd"
viewBox="0 0 167.74 40.02" fill="#fff"
 xmlns:xlink="http://www.w3.org/1999/xlink"
 xmlns:xodm="http://www.corel.com/coreldraw/odm/2003">
 <defs>
  <style type="text/css">
   <![CDATA[
    .fil0 {fill:white;fill-rule:nonzero}
   ]]>
  </style>
 </defs>
 <g id="Слой_x0020_1">
  <metadata id="CorelCorpID_0Corel-Layer"/>
  <polygon class="fil0" points="50.57,14.61 42.46,14.61 42.46,0.33 50.35,0.33 50.35,0.66 43.71,0.66 43.71,7.51 49.14,7.51 49.14,7.84 43.71,7.84 43.71,14.28 50.57,14.28 "/>
  <polygon class="fil0" points="69.56,2.13 64.05,14.67 63.72,14.67 58.14,1.91 57.44,14.61 57.04,14.61 57.85,0.33 58.78,0.33 64.35,13.18 69.85,0.33 70.75,0.33 71.45,14.61 70.17,14.61 "/>
  <path class="fil0" d="M80.38 9.49l-1.89 5.12 -0.42 0 5.47 -14.61 0.33 0 5.6 14.61 -1.41 0 -1.89 -5.12 -5.79 0zm2.89 -7.89l-2.78 7.58 5.57 0 -2.79 -7.58z"/>
  <path class="fil0" d="M98.11 9.49l-1.89 5.12 -0.42 0 5.47 -14.61 0.33 0 5.6 14.61 -1.4 0 -1.89 -5.12 -5.8 0zm2.9 -7.89l-2.79 7.58 5.58 0 -2.79 -7.58z"/>
  <path class="fil0" d="M122.21 11.75c1.25,1.25 2.32,2.29 3.25,2.59l0 0.27 -0.55 0c-1.6,0 -2.48,-1.04 -4.33,-2.86l-3.4 -3.34 -2.09 0 0 6.2 -1.25 0 0 -14.28 4.81 0c3.03,0 4.57,1.62 4.57,3.97 0,2.09 -1.45,3.83 -4.42,4.07l3.41 3.38zm-4.26 -3.67c2.63,0 3.91,-1.69 3.91,-3.8 0,-2.17 -1.12,-3.6 -3.28,-3.6l-3.49 0 0 7.4 2.86 0z"/>
  <path class="fil0" d="M4.72 25.52c2.84,0 4.5,1.43 4.5,3.56 0,1.95 -1.31,3.34 -3.6,3.75 2.99,0.29 4.77,1.56 4.77,3.41 0,2.15 -1.89,3.56 -5.01,3.56l-5.38 0 0 -14.28 4.72 0zm-3.47 7.25l2.81 0c2.27,0 3.89,-1.47 3.89,-3.67 0,-1.96 -1.23,-3.23 -3.25,-3.23l-3.45 0 0 6.9zm0 6.68l3.96 0c2.39,0 3.82,-1.28 3.82,-3.21 0,-1.93 -1.96,-3.23 -4.42,-3.23l-3.36 0 0 6.44z"/>
  <polygon class="fil0" points="24.58,39.8 16.47,39.8 16.47,25.52 24.36,25.52 24.36,25.85 17.73,25.85 17.73,32.7 23.15,32.7 23.15,33.03 17.73,33.03 17.73,39.47 24.58,39.47 "/>
  <path class="fil0" d="M32.61 34.68l-1.89 5.12 -0.42 0 5.47 -14.61 0.33 0 5.6 14.61 -1.4 0 -1.89 -5.12 -5.8 0zm2.9 -7.89l-2.79 7.58 5.58 0 -2.79 -7.58z"/>
  <path class="fil0" d="M59.57 28.46c0,0.79 -0.48,1.5 -1.25,1.76 0.13,-0.37 0.22,-0.75 0.22,-1.12 0,-1.69 -1.36,-3.32 -4.59,-3.32 -2.75,0 -6.11,1.69 -6.11,6.88 0,4.3 2.48,6.87 6.35,6.87 1.87,0 3.87,-0.59 5.1,-1.8l0.19 0.29c-1.29,1.23 -3.38,1.84 -5.36,1.84 -4.63,0 -7.66,-2.72 -7.66,-7.2 0,-4.44 2.96,-7.21 7.49,-7.21 4.17,0 5.62,1.65 5.62,3.01z"/>
  <polygon class="fil0" points="78.16,39.8 76.88,39.8 76.88,33.03 67.13,33.03 67.13,39.8 65.88,39.8 65.88,25.52 67.13,25.52 67.13,32.7 76.88,32.7 76.88,25.52 78.16,25.52 "/>
  <polygon class="fil0" points="86.33,32.7 91.75,32.7 91.75,33.03 86.33,33.03 86.33,39.8 85.08,39.8 85.08,25.52 92.96,25.52 92.96,25.85 86.33,25.85 "/>
  <path class="fil0" d="M108.07 36.94c1.25,1.25 2.33,2.29 3.25,2.59l0 0.27 -0.55 0c-1.6,0 -2.48,-1.04 -4.32,-2.86l-3.41 -3.34 -2.08 0 0 6.2 -1.26 0 0 -14.28 4.81 0c3.04,0 4.57,1.63 4.57,3.97 0,2.09 -1.45,3.83 -4.41,4.07l3.4 3.38zm-4.26 -3.67c2.64,0 3.91,-1.69 3.91,-3.8 0,-2.17 -1.12,-3.6 -3.27,-3.6l-3.49 0 0 7.4 2.85 0z"/>
  <path class="fil0" d="M131.26 32.66c0,4.02 -2.35,7.2 -7.23,7.2 -4.9,0 -7.25,-3.18 -7.25,-7.2 0,-4.02 2.35,-7.21 7.25,-7.21 4.88,0 7.23,3.19 7.23,7.21zm-13.09 0c0,3.84 1.91,6.87 5.86,6.87 3.93,0 5.82,-3.03 5.82,-6.87 0,-3.85 -1.89,-6.88 -5.82,-6.88 -3.95,0 -5.86,3.03 -5.86,6.88z"/>
  <polygon class="fil0" points="149.25,40.02 139.13,26.7 139.13,39.8 138.73,39.8 138.73,25.52 139.83,25.52 149.19,37.84 149.19,25.52 149.56,25.52 149.56,40.02 "/>
  <polygon class="fil0" points="167.74,25.52 167.74,25.85 162.65,25.85 162.65,39.8 161.39,39.8 161.39,25.85 156.28,25.85 156.28,25.52 "/>
 </g>
</svg>
