<svg xmlns="http://www.w3.org/2000/svg" width="311" height="280" fill="none"><g clip-path="url(#clip0_9_2)"><path fill-rule="evenodd" clip-rule="evenodd" d="M17.208 84.678l226.091-51.273-3.133-13.82c-.869-3.934-4.839-6.404-8.736-5.535L19.543 61.774c-3.934.87-6.404 4.804-5.535 8.738 1.078 4.699 2.123 9.468 3.203 14.168l-.003-.002zm-1.88-35.434L229.895.96c10.234-2.297 20.433 4.143 22.731 14.377l22.488 99.382h-13.437l-10.201-45.01-226.092 51.274 13.995 61.72 1.254 5.465c.487 2.193 2.68 3.62 4.909 3.098l1.67-.383v13.158l-.243.073c-8.493 1.914-16.952-3.481-18.902-11.94L.88 72.015c-1.148-5.118-.314-9.92 2.472-14.377 2.784-4.455 6.857-7.241 11.975-8.39l.002-.004zm55.696 69.061c-10.477 0-19.007 8.563-19.007 19.042v123.645c0 10.477 8.528 19.007 19.007 19.007H291.02c10.477 0 19.04-8.563 19.04-19.007V137.347c0-10.477-8.563-19.042-19.04-19.042H71.024zm215.37 55.346v-25.168a2.898 2.898 0 00-2.924-2.924h-56.29a2.942 2.942 0 00-2.924 2.924v25.168a2.942 2.942 0 002.924 2.925h56.29c1.565 0 2.924-1.289 2.924-2.925zM244.9 249.955c-1.636 0-2.96-1.324-2.96-2.924v-5.847c0-1.601 1.324-2.925 2.96-2.925h38.535c1.6 0 2.924 1.324 2.924 2.925v5.847c0 1.6-1.322 2.924-2.924 2.924H244.9zm-53.779 0a2.943 2.943 0 01-2.924-2.924v-5.814a2.918 2.918 0 012.924-2.924h38.57c1.6 0 2.924 1.321 2.924 2.924v5.814c0 1.6-1.324 2.924-2.924 2.924h-38.57zm-53.749 0a2.943 2.943 0 01-2.925-2.924v-5.814a2.919 2.919 0 012.925-2.924h38.57c1.6 0 2.924 1.321 2.924 2.924v5.814c0 1.6-1.324 2.924-2.924 2.924h-38.57zm-53.744 0a2.943 2.943 0 01-2.924-2.924v-5.814a2.92 2.92 0 012.924-2.924h38.57c1.6 0 2.924 1.321 2.924 2.924v5.814c0 1.6-1.322 2.924-2.924 2.924h-38.57z" fill="#181D24"/></g><defs><clipPath id="clip0_9_2"><path fill="#fff" d="M0 0h310.446v280H0z"/></clipPath></defs></svg>1.217V247.031C232.615 248.631 231.291 249.955 229.691 249.955H191.121ZM137.372 249.955C135.771 249.955 134.447 248.631 134.447 247.031V241.217C134.447 239.581 135.769 238.293 137.372 238.293H175.942C177.542 238.293 178.866 239.614 178.866 241.217V247.031C178.866 248.631 177.542 249.955 175.942 249.955H137.372ZM83.6279 249.955C82.0273 249.955 80.7035 248.631 80.7035 247.031V241.217C80.7035 239.581 82.0272 238.293 83.6279 238.293H122.198C123.798 238.293 125.122 239.614 125.122 241.217V247.031C125.122 248.631 123.8 249.955 122.198 249.955H83.6279Z" fill="#181D24"></path> </g> <defs> <clipPath id="clip0_9_2"> <rect width="310.446" height="280" fill="white"></rect> </clipPath> </defs> </svg> 