<svg xmlns="http://www.w3.org/2000/svg" width="801" height="191" viewBox="0 0 167.74 40.02" fill="#fff" shape-rendering="geometricPrecision" text-rendering="geometricPrecision" image-rendering="optimizeQuality" fill-rule="evenodd" clip-rule="evenodd"><path d="M50.57 14.61h-8.11V.33h7.89v.33h-6.64v6.85h5.43v.33h-5.43v6.44h6.86zM69.56 2.13l-5.51 12.54h-.33L58.14 1.91l-.7 12.7h-.4L57.85.33h.93l5.57 12.85L69.85.33h.9l.7 14.28h-1.28zm10.82 7.36l-1.89 5.12h-.42L83.54 0h.33l5.6 14.61h-1.41l-1.89-5.12h-5.79zm2.89-7.89l-2.78 7.58h5.57L83.27 1.6zm14.84 7.89l-1.89 5.12h-.42L101.27 0h.33l5.6 14.61h-1.4l-1.89-5.12h-5.8zm2.9-7.89l-2.79 7.58h5.58l-2.79-7.58zm21.2 10.15c1.25 1.25 2.32 2.29 3.25 2.59v.27h-.55c-1.6 0-2.48-1.04-4.33-2.86l-3.4-3.34h-2.09v6.2h-1.25V.33h4.81c3.03 0 4.57 1.62 4.57 3.97 0 2.09-1.45 3.83-4.42 4.07l3.41 3.38zm-4.26-3.67c2.63 0 3.91-1.69 3.91-3.8 0-2.17-1.12-3.6-3.28-3.6h-3.49v7.4h2.86zM4.72 25.52c2.84 0 4.5 1.43 4.5 3.56 0 1.95-1.31 3.34-3.6 3.75 2.99.29 4.77 1.56 4.77 3.41 0 2.15-1.89 3.56-5.01 3.56H0V25.52h4.72zm-3.47 7.25h2.81c2.27 0 3.89-1.47 3.89-3.67 0-1.96-1.23-3.23-3.25-3.23H1.25v6.9zm0 6.68h3.96c2.39 0 3.82-1.28 3.82-3.21s-1.96-3.23-4.42-3.23H1.25v6.44zm23.33.35h-8.11V25.52h7.89v.33h-6.63v6.85h5.42v.33h-5.42v6.44h6.85zm8.03-5.12l-1.89 5.12h-.42l5.47-14.61h.33l5.6 14.61h-1.4l-1.89-5.12h-5.8zm2.9-7.89l-2.79 7.58h5.58l-2.79-7.58zm24.06 1.67c0 .79-.48 1.5-1.25 1.76.13-.37.22-.75.22-1.12 0-1.69-1.36-3.32-4.59-3.32-2.75 0-6.11 1.69-6.11 6.88 0 4.3 2.48 6.87 6.35 6.87 1.87 0 3.87-.59 5.1-1.8l.19.29c-1.29 1.23-3.38 1.84-5.36 1.84-4.63 0-7.66-2.72-7.66-7.2 0-4.44 2.96-7.21 7.49-7.21 4.17 0 5.62 1.65 5.62 3.01zM78.16 39.8h-1.28v-6.77h-9.75v6.77h-1.25V25.52h1.25v7.18h9.75v-7.18h1.28zm8.17-7.1h5.42v.33h-5.42v6.77h-1.25V25.52h7.88v.33h-6.63zm21.74 4.24c1.25 1.25 2.33 2.29 3.25 2.59v.27h-.55c-1.6 0-2.48-1.04-4.32-2.86l-3.41-3.34h-2.08v6.2H99.7V25.52h4.81c3.04 0 4.57 1.63 4.57 3.97 0 2.09-1.45 3.83-4.41 4.07l3.4 3.38zm-4.26-3.67c2.64 0 3.91-1.69 3.91-3.8 0-2.17-1.12-3.6-3.27-3.6h-3.49v7.4h2.85zm27.45-.61c0 4.02-2.35 7.2-7.23 7.2-4.9 0-7.25-3.18-7.25-7.2s2.35-7.21 7.25-7.21c4.88 0 7.23 3.19 7.23 7.21zm-13.09 0c0 3.84 1.91 6.87 5.86 6.87 3.93 0 5.82-3.03 5.82-6.87 0-3.85-1.89-6.88-5.82-6.88-3.95 0-5.86 3.03-5.86 6.88zm31.08 7.36L139.13 26.7v13.1h-.4V25.52h1.1l9.36 12.32V25.52h.37v14.5zm18.49-14.5v.33h-5.09V39.8h-1.26V25.85h-5.11v-.33z" fill-rule="nonzero"/></svg> -7.89l-2.79 7.58 5.58 0 -2.79 -7.58z"/>
  <path class="fil0" d="M59.57 28.46c0,0.79 -0.48,1.5 -1.25,1.76 0.13,-0.37 0.22,-0.75 0.22,-1.12 0,-1.69 -1.36,-3.32 -4.59,-3.32 -2.75,0 -6.11,1.69 -6.11,6.88 0,4.3 2.48,6.87 6.35,6.87 1.87,0 3.87,-0.59 5.1,-1.8l0.19 0.29c-1.29,1.23 -3.38,1.84 -5.36,1.84 -4.63,0 -7.66,-2.72 -7.66,-7.2 0,-4.44 2.96,-7.21 7.49,-7.21 4.17,0 5.62,1.65 5.62,3.01z"/>
  <polygon class="fil0" points="78.16,39.8 76.88,39.8 76.88,33.03 67.13,33.03 67.13,39.8 65.88,39.8 65.88,25.52 67.13,25.52 67.13,32.7 76.88,32.7 76.88,25.52 78.16,25.52 "/>
  <polygon class="fil0" points="86.33,32.7 91.75,32.7 91.75,33.03 86.33,33.03 86.33,39.8 85.08,39.8 85.08,25.52 92.96,25.52 92.96,25.85 86.33,25.85 "/>
  <path class="fil0" d="M108.07 36.94c1.25,1.25 2.33,2.29 3.25,2.59l0 0.27 -0.55 0c-1.6,0 -2.48,-1.04 -4.32,-2.86l-3.41 -3.34 -2.08 0 0 6.2 -1.26 0 0 -14.28 4.81 0c3.04,0 4.57,1.63 4.57,3.97 0,2.09 -1.45,3.83 -4.41,4.07l3.4 3.38zm-4.26 -3.67c2.64,0 3.91,-1.69 3.91,-3.8 0,-2.17 -1.12,-3.6 -3.27,-3.6l-3.49 0 0 7.4 2.85 0z"/>
  <path class="fil0" d="M131.26 32.66c0,4.02 -2.35,7.2 -7.23,7.2 -4.9,0 -7.25,-3.18 -7.25,-7.2 0,-4.02 2.35,-7.21 7.25,-7.21 4.88,0 7.23,3.19 7.23,7.21zm-13.09 0c0,3.84 1.91,6.87 5.86,6.87 3.93,0 5.82,-3.03 5.82,-6.87 0,-3.85 -1.89,-6.88 -5.82,-6.88 -3.95,0 -5.86,3.03 -5.86,6.88z"/>
  <polygon class="fil0" points="149.25,40.02 139.13,26.7 139.13,39.8 138.73,39.8 138.73,25.52 139.83,25.52 149.19,37.84 149.19,25.52 149.56,25.52 149.56,40.02 "/>
  <polygon class="fil0" points="167.74,25.52 167.74,25.85 162.65,25.85 162.65,39.8 161.39,39.8 161.39,25.85 156.28,25.85 156.28,25.52 "/>
 </g>
</svg>
