<?xml version="1.0" encoding="utf-8"?><svg viewBox="0 0 139 15" xmlns="http://www.w3.org/2000/svg" xmlns:xlink="http://www.w3.org/1999/xlink"><style>:root>svg{display:none}:root>svg:target{display:block}</style><svg viewBox="0 0 139 15" id="damac-logo" xmlns="http://www.w3.org/2000/svg"><path d="M138.894.148l.062-.133h-12.182c-3.591 0-6.65.65-9.179 1.947-2.453 1.233-4.369 3.155-5.443 5.461-.708 1.491-.91 2.846-.605 4.063.164.618.494 1.19.963 1.67s1.062.853 1.73 1.086c1.323.505 3.53.758 6.619.758h11.006l1.097-2.379h-6.188c-2.989 0-4.978-.34-5.967-1.02-1.09-.734-.967-2.436-.116-4.226 1.476-3.116 4.566-5.057 8.84-5.057h4.794l-1.103 2.34h3.653L139 .148h-.106zM96.218 9.002l7.412-6.373 1.541 6.373h-8.953zm-63.028.024l7.217-6.1 1.302 6.1H33.19zM102.994 0H98.48L81.111 14.37 87.898.014h-7.443L71.461 6.24l-4.63 3.36h-.198l2.18-4.894-2.669-4.69h-7.476l-6.8 14.38-3.92-14.38h-8.2L21.637 15h4.541l4.627-3.924h11.403L43.117 15h12.117l4.38-9.264c.223-.465.43-1 .64-1.597.034.532.183 1.053.437 1.536l3.854 7.728h.65l11.023-7.698a22.518 22.518 0 001.876-1.566c-.427.697-.724 1.228-.899 1.597L72.815 15h16.432l4.576-3.924h11.843l.95 3.924h4.166l-4.056-15h-3.732zM23.67 11.486c1.39-1.138 2.494-2.523 3.24-4.063 1.107-2.343 1.012-4.163-.284-5.46C25.33.663 22.883.014 19.286.014H7.114l-1.1 2.346h8.382c4.275 0 5.515 1.883 4.04 4.999-.852 1.81-1.607 3.462-3.387 4.202-1.627.676-3.311.875-6.301.875H4.869L7.764 6.37H4.1L0 15h11.034c3.093 0 5.538-.253 7.333-.758 1.977-.56 3.788-1.501 5.303-2.756z"/></svg></svg>